<svg width="18" height="21" viewBox="0 0 18 21" fill="none" xmlns="http://www.w3.org/2000/svg">
<path d="M13.2093 12.4941C12.091 12.4941 11.5532 13.1021 9.71795 13.1021C7.88266 13.1021 7.34883 12.4941 6.22661 12.4941C3.33534 12.4941 0.989594 14.7817 0.989594 17.6012V18.5739C0.989594 19.5809 1.82736 20.3979 2.85996 20.3979H16.576C17.6085 20.3979 18.4463 19.5809 18.4463 18.5739V17.6012C18.4463 14.7817 16.1006 12.4941 13.2093 12.4941ZM16.576 18.5739H2.85996V17.6012C2.85996 15.7924 4.37183 14.3181 6.22661 14.3181C6.79551 14.3181 7.719 14.9261 9.71795 14.9261C11.7325 14.9261 12.6365 14.3181 13.2093 14.3181C15.0641 14.3181 16.576 15.7924 16.576 17.6012V18.5739ZM9.71795 11.8862C12.8157 11.8862 15.329 9.43523 15.329 6.41433C15.329 3.39343 12.8157 0.942505 9.71795 0.942505C6.62016 0.942505 4.10686 3.39343 4.10686 6.41433C4.10686 9.43523 6.62016 11.8862 9.71795 11.8862ZM9.71795 2.76645C11.7792 2.76645 13.4587 4.40419 13.4587 6.41433C13.4587 8.42446 11.7792 10.0622 9.71795 10.0622C7.65666 10.0622 5.97723 8.42446 5.97723 6.41433C5.97723 4.40419 7.65666 2.76645 9.71795 2.76645Z" fill="#373A3C"/>
</svg>
